<!-- Generator: Adobe Illustrator 23.0.1, SVG Export Plug-In  -->
<svg version="1.1" xmlns="http://www.w3.org/2000/svg" xmlns:xlink="http://www.w3.org/1999/xlink" x="0px" y="0px" width="227px"
	 height="210px" viewBox="0 0 227 210" style="enable-background:new 0 0 227 210;" xml:space="preserve">
<style type="text/css">
	.st0{filter:url(#AI_Shadow_1);}
	.st1{fill:#93AC98;}
	.st2{fill:#74907A;}
</style>
<defs>
</defs>
<filter  filterUnits="objectBoundingBox" id="AI_Shadow_1">
	<feGaussianBlur  in="SourceAlpha" result="blur" stdDeviation="2"></feGaussianBlur>
	<feOffset  dx="4" dy="4" in="blur" result="offsetBlurredAlpha"></feOffset>
	<feMerge>
		<feMergeNode  in="offsetBlurredAlpha"></feMergeNode>
		<feMergeNode  in="SourceGraphic"></feMergeNode>
	</feMerge>
</filter>
<g class="st0">
	<g>
		<path class="st1" d="M45.3,111.9c-4.1-0.2-2.5-2.4-5.9-3.5c-1.4-0.4-6.1,0.2-9-0.7c3.2-1.2,4.4-6.6,5.2-9.1
			c0.5-1.6-2.9-1.8-3.9-2.5c4.2-1.5,31.6-19.4,35.1-16.9c2,1.4-3.8,16.7-4.9,18.2c-3,4-8.6,5.4-12.7,7.5c3.3,2.4,6.9-2.2,9-3.4
			c5.9-3.1,4.1-1.8,9.6-0.7c-5.2-1.1-0.5-17,1.1-20c2.4-4.4,4.1-6.5,8.7-8.8c0.9-0.5,11.1-4,11.4-3.9c2.9,1.3-2.6,9.1,1.2,10.9
			c-2.1-8.3,2-12.7,8.3-15.7c3.3-1.6,8.2-2.2,11.2-4.8c3.9-3.4,0.6-4.1,4.7-7.4c0.9,1.3,3.4,0.8,3.9,2.1c-8.2,5,3.3,3.1,4.9,7.5
			c-3.8-0.3-5.2-2.7-9,0.8c-3.8,3.5-3.2,13.4-3.5,17.6c-0.9-2.1-2.5,5.1-2.7,6.6c-0.4,3.1,1,8.8-0.8,12.1
			c-2.8,4.9-11.5,10.2-17.1,11.7c-6.6,1.9-11.4-4.6-18.2-5.4c1.4,6.2,10.7,4.4,11.3,10.1c0.8,7.2-6.9,8.9-10.3,12.1
			c4.2,0,7.8-1.8,3.7,4.3c6.7-2.4,2.5-10.2,8.9-15.8c2.8-2.4,22.4-15.8,23.9-14.8c1.2,0.7-0.1,22.8-0.1,25
			c-0.1,9.8-0.2,13.7-9.7,17.7c-6.1,2.5-10.1,1.8-10.6,9.9c3.5-0.6,12.3-15.7,19.2-12.1c4.2,2.2-1.7,25.1-1.1,29.6
			c0.5-0.4,0.9-1,1-1.7c4.2,0,1.5,9.8,1.5,12c0.1,5.2,1.1,4.9,4.1,7.3c-4.2,8.8-16,2.3-14.8-5.1c-0.1,0.4,11.5-15.8,4.5-15
			c-1.4,0.2-1.6,3.8-2.4,4.6c0-1.1,0.2-3.5-1.4-3.7c-3.8-0.5-0.4,6.4-0.4,5.4c0,2-6.1,0.1-6.4-0.2c-2.5-3.2,2.2-3.8,2.1-8
			c0.1,2.4-5.2-6.1-4.3-5.4c-2.9-2.4-6.4-2.9-9.5-4.9c-4-2.5-2.8-5-5.1-8c-0.5-0.7-4.9-3.6-6.4-5.2c0.8,0.9,0.9-2,0.3-2.8
			c-1-1.5-3.8-0.5-4.6-3.1c-1.7-5.5,2.8-3.4,2.5-7.2c-0.5-6.2-6.5-10.9-9.7-15.6c1.1-0.7,2.1-0.7,3.1,0.1c0,0-4.1-7.6-4.3-7.7
			c-2.2-0.6-4,5-5.3,5.6C49.6,112.7,47.3,110.1,45.3,111.9z M69.7,102.6c-0.6-0.4,1.3,1.3,1,1.2C71.3,104,69.7,102.6,69.7,102.6z
			 M107,75.5c-2.4,0.4-4.3,2.8-6.7,3.8c-2.4,1-7.4,0.9-9,1.7c-0.2,0.7-0.2,1.4,0,2.1c0.3-0.1,20.7-9.7,19-10.6
			C109.9,72.2,107,74.8,107,75.5z M85.2,141.4c0,0-1.9-9.5-4.2-11.9C82,132.3,82,142,85.2,141.4z M93.9,87c-0.7,0.3-1.5,0.4-2.3,0.3
			c-0.9,0.4,2.1,3.3,4.5,2c1.1-0.6,4.6-3.7,1.7-5c0.1,0.1-5.2,0.9-4.9,0.4C92.3,85.8,92.6,86.6,93.9,87z M107.3,172.5
			c-1.8,3.1-2.7,16.1-0.8,18.9C106.9,185,108.7,178.8,107.3,172.5z M108.7,67.2C112.7,69.1,105.9,62.6,108.7,67.2z M42.3,103.7
			c-0.9-0.4-0.6-1.4-1.7-2.1C40.8,102.9,39.5,104.4,42.3,103.7z M72.2,108.6c-1,0.7-1.7,0.7-1.9,1.7C71.1,110.1,71.8,110,72.2,108.6
			z M89.6,143.9C86.9,144.5,93.2,144.1,89.6,143.9z M70,111.1C69.1,110.9,69.5,112,70,111.1z M108.1,123.3
			C108.5,123,107.2,122.9,108.1,123.3z M71.7,127C71.4,127.2,71.7,127.1,71.7,127z"/>
		<path class="st1" d="M22.8,86.6c0.4-5.1,4.1-7.6,5.3-11.8c1.2-4.4-1.9-6.8,1.4-11c3.8-4.8,6.5-1.3,10.9-3.1
			c5.1-2.1,1.3-1.6,0.2-2.9c-1.5-1.7-6.2-6.2-5.7-10.4c0.1-0.8,11.5-13,4.5-10.9c0.5-4.5,21.5,1,25.1,1.7c2,0.4,9.5,1.6,10.5,3.2
			c2,3.1-1.6,1.3-2.4,4.9c7.6-6.1,16.1,0.6,22.9,4.4c2,1.1,13.2,4.5,13.4,5.7c0.2,1-17.5,7.1-19.3,7.3c-2.5,0.2-11.3-5.7-13.2-4.6
			c1.7-0.2,9.7,4.7,9.7,6.3c-0.1,3.6-15,5.5-17.2,5.1C66.2,70,47.2,59.1,50.1,57.9c1,7.9-3.8,2.7-8.4,6.1c4.3,1.7,8.5,0.4,12.7,1.8
			c2.4,0.8,16.3,5.9,16.4,7.5c0.4,3.9-12.6,7.6-15.7,8.7c-7.9,2.8-11.9,3.1-20.3-1.5c-0.3,4.9,21.3,8,1.1,12.6
			c0.4-2.7,1-5.3,1.4-8.6c-3,1.3-5.8-1.2-8.7,1.3c-3.8,3.2-0.8,3-2.2,6.8C25.3,91.2,25.2,86.9,22.8,86.6z M97.3,58.5
			c-1-0.9,0.1,0.4,0.3,1.1C98.3,59.2,98.3,58.6,97.3,58.5z M68.4,47.4c-1.1,1-2.3,1.5-3.7,1.8C67.6,49.3,67.6,49.3,68.4,47.4z"/>
		<path class="st2" d="M113.7,187.8c-4.8-3.9-3.1-4.1-3.7-11.6c-0.3-4-2.2-7.7-1.9-11.5c1.8-0.2,1.5-1.7,2.7-1.9
			c2.4-0.4,5.3,6.5,7.8,4.2c1.3-1.2-3.9-2.8-4.4-3.4c-3.9-5-5.3-15.9,5-16.4c0.3,2.3,0,3.6,0.6,6c-2.4-7.3,5.2-9.9,7-3.2
			c-0.8,0.1-1.3,0.5-1.6,1.3c1,0.3,1.6-0.1,1.8-1.1c1.8,1,1.5,6.7,1.6,8.1c1.6-0.9,0.9-6.9-0.3-6.7c0.3-3.1,2.3-2.9,4.2-5.1
			c2.8-3.3,4-3.6,6-9.2c3.4-9.5,1.2-2.3,9.6-3.8c-1.6-1-3.4-1.7-5.2-2.2c1.7-2.2-5.5-11.1-6.1-13.6c-0.9-3.9-3.5-5.6,3.3-6.8
			c0.8-0.2,2-0.6,3.3-0.5c-3.9-0.2,8.4,3,3.8,1.3c3.7,1.3,1.1,2.5,2.6,3.5c0.7-1.9,4.7-4.7,4.8-5c0.5-1.5-6.1-0.6-1.2-4
			c3.2-2.2,5.6,0.7,8.7-0.6c-2.8-0.7-7-4.1-5.3-7.3c2-3.5,1.6-1.5,5-1.8c4.5-0.4,11.4,0.1,16.2,0c3.5-0.1,15.2,0.3,14.7,3.4
			c0,0-6.1,3.3-4.6,2.5c-6.3,3.5-6.1,2.4-11.4-1.6c1.3,1.9-4.6,12.8-5.8,2c-1.4,0.5-1.9,1.4-1.4,2.8c1.8,3.1,1.3,5.4-1.7,7.1
			c-1.1,2.8-2.8,6.4-4.6,8.6c1.5-1.9-2.7,2.8-0.9,1.6c-5.3,3.4-3.3,1.7-8.4-2.8c0.6,1.3,0.7,6.9-0.1,8.6c0.1-0.2,4.3-6.7,4.4-0.9
			c0.1,3.3-5.6,11.9-7.8,14.1c-3.6,3.5-12.1,3.4-13.3,7.2c-0.5,1.7,2.1,7,1.8,8.1c-1.1,3.9-7.3,6.7-9.7,9.8
			C123.6,173.9,120.8,181,113.7,187.8z M119.6,168.1C120.5,168.7,118.9,167.2,119.6,168.1z M121.1,172.1c0.6-1.2-0.2-2.2-0.3-3.6
			C119.6,170.1,120.5,171.1,121.1,172.1z M142.3,123.3C143.4,122.8,141.7,122.4,142.3,123.3z M138.7,116.8
			C138.2,116.6,138.6,117.4,138.7,116.8z"/>
		<path class="st1" d="M124,34.5c0.5-1,2-2.2,2.9-3.2c0,0.8,8.6-0.6,8.2-0.3c-0.8-0.7-0.9-1.5-0.3-2.5c2.1,4.8,6.7-4,7.5-4.7
			c1.7-1.5,0.4-1.7,4.6-3.3c4.3-1.7,6.6-1.4,10.6,0.1c0.5,0.2,8.2,5,8.4,5.3c0.4-6.4,5.1,2.2,6.4-2.7c-1.9-0.1-3.6-0.8-5.1-1.8
			c7.2,1.7,13.9,0.6,18,8.1c1.4,2.6,3.8,13.3,1.2,15.7c-1.4-2.6-7.6-0.4-7,2.1c0.2,0.8,3.2,1.2,3.1,1.3c-0.3,0.1-8.9-1.3-7.2-2.7
			c-0.7,0.6,2.1,2.5,2.3,3.5c-2.8,1.8-7.2-7.1-11.2-1.1c-1.1-4.6,0.3-3.4,2.8-4.7c-0.8-0.9-1.7-1.4-2.8-1.6
			c-0.6-3.2,4.2-0.7,3.5-4.6c1.9,1.3,1.8,5.7,3.1,7c2.3-2.7,2.2-6.7,5.8-8.5c-4.3-1.3-5.4-1.1-9.4,0c-4.3,1.2-2.7,1.1-4.5,2.8
			c-1.2,1.2,0.1,2.2-3.5,4c-4.7,2.4-11.1-2.1-15,2.5c-3.1-3.7,11.2-6.4,13.3-7.4c6.3-3.3,10.9-6.9,18.4-8.6
			c-8.3-2.7-16.9,7.2-24.6,9.6c-15,4.5-5-7.9-5.2-15.5c-3.9,5.9-1.3,10.8-4.1,16.3c-1.4,2.6-9.1,8.7-11,4.4c2,8.1-14.9,5-11.2,2.8
			c1.3-0.1,1.8,0.6,1.6,2.1C131.3,42.7,125.2,41.4,124,34.5z M179.3,28.5C178.7,27.7,177.4,29.3,179.3,28.5z M133.5,32.7
			C132.5,32.3,133.1,33.6,133.5,32.7z"/>
		<path class="st1" d="M43,26.2c6.4-4.3,14.1-2.3,20.6-4.8c4.6-1.7,2.8-5.1,9.5-3.7c2.4,0.5,5.5,4,7.6,5.1c2.9,1.5,5.4,1,8.4,3.5
			c3.1,2.6,2.4,4.7,4.3,6.8c3.7,4.3,9.1,12,13.6,15.2c-0.1,0.7,3.5,3.9,3.8,5.9c-6.1-1-22.2-6.2-23.5-13.4c0.4,5.4-9.5-0.3-10.7-1.8
			c-3.1-3.7-1.2-10.9-6.8-12c1.7,1.5,6.3,9.8,4.3,12.1c-0.9,1-8.7-2.1-9.8-2.4c-5-1.1-23.5-1.1-25.2-3.9
			C41.8,31.5,41.4,29.3,43,26.2z M69.5,26.7C69.9,26.4,69.2,26.3,69.5,26.7z"/>
		<path class="st2" d="M178.8,49.3c1.2-0.2,2.4-0.4,3.6-0.6c0.2-0.2-2.9-0.5-3.1-1.3c-0.6-2.5,5.6-4.6,7-2.1c-0.2-1.1,0.2-2.1,1-2.8
			c6.6,13.7,11.7,28.1,18.8,41.6c-2.5-0.4-3.1,2.3-6,2c-2.9-0.3-2-2.9-4.8-2.3c0.2-1.9,2.2-1.7,3.2-3.6c-5,2.2-7.5,0.3-8.7-3.2
			c-0.4-1.3-3,1.2-2.3-1.6c0.7-3.2,9.8-3.3,5.7-8.5c0.6,7.2-18.8,11.2-17.7,3.1c-1.3,2.3-5.7,2.9-5.7,0.6c-0.1-4.4,8.6-7.2,8.6-7.8
			c0.4-7.2,7.5,0.8,9.6-1.8c-1.2-0.6-7.8-1.8-7.7-1.7C180.3,59.3,178,50.2,178.8,49.3z M180.2,69.2c-1.5,0.4-1.7,0.9-0.6,1.3
			C179.8,70.5,181.4,68.3,180.2,69.2z M182.9,67.7C180.6,66.6,182.8,70.2,182.9,67.7z M181.1,64.8c-0.6-0.4-0.9-1.2-1.8-0.5
			C179.8,64.9,180.3,65,181.1,64.8z"/>
		<path class="st2" d="M102.2,42.3c-2.5-4.6-6.1-5.9-9.4-9.5c-2.5-2.7-0.5-4.5-5.6-7.9c-2.5-1.7-13.6-3.5-14.1-7.1
			C82.6,20.7,88.4,21.9,96,29c6.3,5.9,9,12.7,14.2,18.9c1.9-3.6,1.9-30.3,5.5-28.9c6.8,2.6-5.4,23.9-1.4,28
			c3.2-4.2,5.9-8.7,9.6-12.5c1,5.3-0.6,2.3-1.5,7.4c0.4-0.3,4.3-4.3,5.1-1.8c1.9,6.7-0.4,5.8-4.3,9c0.2-1.5-0.4-2.2-1.6-2.1
			c-0.3,0.2-2.2,10.4-7.1,5.6c-0.9-0.9,0.9-2.9,1.4-3.6c-0.9,0.7-4.1,5.8-4.1,5.6c-1.2,0.2-3.6-5.4-4.9-6.4
			C106.5,47.2,103.9,42.5,102.2,42.3z M119.2,46.1c-1.3,0.4-2.2,0.8-2.4,2.5C117.8,47.6,118.6,47.3,119.2,46.1z"/>
		<path class="st2" d="M22.8,86.6c2.5,0.3,2.5,4.5,3.6,5.9c1.5-3.8-1.6-3.7,2.2-6.8c2.9-2.5,5.7,0.1,8.7-1.3
			c-0.2,1.8-0.9,6.8-1.7,7.9c-1.4,1.9-6.8,2.5-8.1,5.8c2.5,0.2,4.5-3.3,7.1-0.9c2.2,2-0.2,7.4-2.9,9c-2.4,1.5-2.7,1.2-6.1,0.3
			c-10.1-2.7-2-4.6,1.5-8.1c-2.1-0.8-6.3,2.3-8.1,3.1C18,97,21.8,91.1,22.8,86.6z"/>
		<path class="st1" d="M193.3,99.2c0-4.7-21.3-2-24.2-1.4c1.8-3.6,11.2-2.7,10.2-7.3c2.1,0.1,2.2,2.8,0.4,4.3
			c3.9-1.5,1.9,0.9,3.4,0.3c-3.5-2.6-2.4-12.2,1.2-13.3c1.7-0.5,5.7,1.9,7.3,2.6c2.5-0.1,4.5,0.8,6.1,2.7c-0.6,0.6-1,1.3-1.1,2.1
			c1.9,3.1,4.3-1.7,4.2,3.9C200.7,96.7,196.2,97,193.3,99.2z"/>
		<path class="st2" d="M92.8,173.9c-0.1,0,6.4,2.4,6.4,0.2c0,1-3.4-5.9,0.4-5.4c1.6,0.2,1.4,2.6,1.4,3.7c0.9-0.8,1.1-4.5,2.4-4.6
			c6.6-0.8-5.3,16.2-5.1,17C95.5,183.2,93.4,176.7,92.8,173.9z"/>
		<path class="st2" d="M79.4,155.4c1.5-1.9,11.1,2.8,7.6,3.6c0.3,0.4,2.4-0.4,3.2,0.4c1.1,1.2,0.1,3.6,0.9,4.9
			c0.6,0.9,9.6,3.3,0.3,7.5C88,166.1,82.6,161.3,79.4,155.4z M89.9,166.6C90.9,165.4,88.6,165.7,89.9,166.6z"/>
		<path class="st2" d="M34.8,47.4c0.2,2,0.5,4,0.9,6c1.2,0.4,2.4,0.7,3.7,0.9c1.4,1.6,0.4,2.7,1.1,3.5c2.3,2.6,3.9,0.1-1.8,2.9
			c-1.2,0.6-4.4-0.3-6.1,0.2c-2.5,0.7-2.5,3.8-4.5,4.4C27.3,62.4,33.7,50.4,34.8,47.4z M35.1,54.9C35,55.6,35.2,55.1,35.1,54.9z"/>
		<path class="st2" d="M43,26.2c-1.6,3.1-1.2,5.2-3.9,6.7c2.3,3.7,0.6-0.6,0.2,3.5c5.1-1.5,0.7,7.9-3.5,7.5
			C35.1,36.1,35.5,29.6,43,26.2z"/>
		<path class="st2" d="M59.4,115.8c3.2,0.1,4.9,5.9,5.7,7.5c2.1,4.2,5,7.1-1.3,10.4C61.1,128.1,60.2,121.9,59.4,115.8z"/>
		<path class="st2" d="M167.2,21.5c1.5,1.1,3.2,1.7,5.1,1.8c-1.3,4.7-6-3.7-6.4,2.7c-0.3-0.4-8.9-5.9-9.5-6.2
			c-3.8-1.4-9.3,2.7-12.1,0.8C151.8,17.3,160,16.6,167.2,21.5z"/>
		<path class="st1" d="M139,156.9c-1.7-2.6-2.2-8.9-0.7-10.5c0.5-0.5,8-2.2,9-1.1C145.4,149.6,142.2,153.5,139,156.9z"/>
		<path class="st2" d="M141.4,22.4c3,3.5-5.2,9.5-6.6,6.2c-0.6,0.9-0.5,1.7,0.3,2.5c-2.7,0.6-5.4,0.7-8.2,0.3
			C129.5,27.6,137.2,23.8,141.4,22.4z"/>
		<path class="st2" d="M66.3,17.9c1.1,3.3-16.9,7-19.9,6.7C49.6,19.8,61,17.8,66.3,17.9z"/>
		<path class="st2" d="M45.3,111.9c2-1.8,4.2,0.8,6.3-0.1c1.7-0.7,2.8-6.3,5.3-5.6c0.2,0.1,4.5,7.3,4.3,7.7
			C56.3,112.8,50.5,113.3,45.3,111.9z"/>
		<path class="st1" d="M170.5,109.8c0.2-2.6-2.5-5.8,0.5-7.2c1.2,10.8,7.1-0.1,5.8-2c2.1,1.1,3.7,2.6,4.9,4.5
			C177.9,106.7,174.2,108.2,170.5,109.8z"/>
		<path class="st1" d="M153.1,137.6c1.9-4.1,8.8-14.9,0.9-9.3c0.4-2.3,1-6.4,0-8.4C160.6,125.7,161.9,131.6,153.1,137.6z"/>
		<path class="st2" d="M201.2,94.5c-0.5-1.3-0.7-2.6-0.6-4c-1.3-0.5-2.7-0.9-4-1.3c-2.4-3.9,9.6,0.3,10.1,0.3
			C205.6,92,203.7,93.7,201.2,94.5z"/>
		<path class="st2" d="M27,69.1c3,4.6-0.2,6.7-2.4,10.5C24.4,76,25.9,72.5,27,69.1z"/>
		<path class="st1" d="M206.6,89.5c-1.9-0.4-2.4-2.1-4.2-3C205.7,83.5,209.7,84.9,206.6,89.5z"/>
		<path class="st1" d="M19.1,101.6c1.8-0.8,6-3.9,8.1-3.1c-1.1,1.1-6.6,2.8-7,5.2C19.1,103.4,18.7,102.7,19.1,101.6z"/>
		<path class="st2" d="M37.2,110c0.9-1.1,6.5-1.9,4.9,0.9C40.4,110.6,38.8,110.3,37.2,110z"/>
		<path class="st2" d="M67.5,139c1.1,0,4.3,0.6,3.4,2.7C69.1,143.2,68,142.3,67.5,139z"/>
		<path class="st2" d="M74,147.8c1.5-2,3.3,1.9,1.9,3.4C75.2,150,74.6,148.9,74,147.8z"/>
		<path class="st1" d="M121.6,177.8c-0.4-2.4,0.7-3.3,3-2.9C124,176.2,122.9,177.2,121.6,177.8z"/>
		<path class="st1" d="M36.7,31.8C39.9,34.5,33.3,32.7,36.7,31.8z"/>
		<path class="st1" d="M162.4,122.7c-0.3-0.8-0.3-1.5,0.2-2.2C163.7,121,163.6,121.7,162.4,122.7z"/>
		<path class="st1" d="M140.9,22.5c-0.3,1.1-1,1.2-1.9,1.1C139.4,22.8,140.1,22.6,140.9,22.5z"/>
		<path class="st1" d="M206,83.7c-0.8-0.2-1.2-0.7-1-1.5C205.6,82.4,206,82.9,206,83.7z"/>
		<path class="st1" d="M191.3,100.6c0.1-0.9,0.8-0.9,1.4-0.9C192.5,100.3,192.1,100.7,191.3,100.6z"/>
		<path class="st2" d="M125.4,32.6c0,0.5,0,1-0.5,1.2C124.5,33.2,125.1,32.9,125.4,32.6z"/>
		<path class="st2" d="M124.9,33.8c-0.2,0.5-0.6,0.5-1,0.5C124.2,33.9,124.3,33.4,124.9,33.8z"/>
		<path class="st1" d="M28.8,107.2c0.5-0.1,0.9-0.1,1.1,0.5C29.5,107.5,29.2,107.3,28.8,107.2z"/>
		<path class="st2" d="M126.9,31.3c-0.2,0.2-0.3,0.3-0.5,0.5C126.4,31.5,126.6,31.4,126.9,31.3z"/>
		<path class="st2" d="M126.4,31.8c-0.2,0.2-0.5,0.3-0.7,0.5C125.9,32.2,126.1,32,126.4,31.8z"/>
		<path class="st1" d="M64.9,17.9c-0.2,0.1-0.4,0.2-0.6,0.4C64.5,18.1,64.7,18,64.9,17.9z"/>
		<path class="st2" d="M112.3,67.3c1-12.9,12.4-7.2,11.1,2.1c0.4-2.7-2.6-6.6-2.1-8.7c6.1,0.5,7.8,3.3,12.5,3.9
			c-1.1,3.6-1.1-0.1-1.8,0.9c3.2,1,4.7,3.3,8.5,3c-0.3,2.5,1.2,2.9,0.5,5.3c-0.4,1.6-4.8,3.4-5.1,5.1c-0.2,1,4.6-3.6,4.7-3.6
			c3.9-1.6,0.5-4.8,5.3-0.5c-0.6-0.5,1.3,4.7,1.4,5.1c2.6,5.9,4.1,3.3,0.2,9.2c3.4-2.1,6.7,4,6.3,6.7c0.6-4.1-6.9,5.3-4.8,4.5
			c-6.1,2.4-1.1-1.9-4.2-2.1c0.4-1.7-0.3-2.4-2-2.3c-0.5,0.5-0.6,1.1-0.2,1.7c0.2,0-5.4,4.6-6.3,5.2c-1.3,0.8-1.7,3.7-1.9,3.7
			c-3.2,1.2-6.4-2.7-9.2-2.9c-0.6-2.1,4.7-6.2,6.3-6.5c-6.3-2.7-8.6,5.8-11.3-3.4c-3.4,5.2-6.3-6.1-6.6-7.2c4.5,0.3-0.6-4.8,1-7.1
			c1.5,0.5,2.3,1.5,2.5,3.1c2.4-2.7,1.3-1.2,5.6-0.5c1.6,0.8,3.2,1.4,4.9,1.8c2,1.5,2.9,1.3,2.7-0.9c0.8-0.1,4.2-2.7,4-2.8
			c-2.6-0.8-6.3,2.7-10.8,1.3C116.8,79.5,111.5,74.6,112.3,67.3z M142.6,92.6c-1.6,0.2-3.1,0.3-4.7,0.1
			C139.4,93.9,141,95,142.6,92.6z M136.7,92.2c-0.6-1.7-1.6-2.7-3.2-3.1C132,89.9,135.3,92.8,136.7,92.2z M141.8,95.3
			C141.5,94.8,141.6,95.8,141.8,95.3z"/>
		<path class="st2" d="M146.2,45.4c2.8-3.3,8.2-2.8,12.8-2.6c6,0.3,6,0,7.3,5.7c2-3.1,10.8-0.9,12,1.4c3.5,6.8-4.6,12.1-8.5,15.1
			c0-0.2,0.1-2.4,0-2.5c-0.2-0.1-3.9,3.8-6.8,3.4c1.9,7.2-10.3,1.9-10.2,2.6c0.5-0.4,0.9-0.9,1.2-1.5c-2.9-3.2-7,1.1-8.7-2.9
			c-0.2-0.4,4.9-3.8,4.6-4.9c-2.3,0.5-20.8,8.6-17.4,0.1c-2.6,1.1-18.6-0.3-17.4-3.6c3.7-0.5,7.2-2.1,12.4-4.3
			C130,50.3,146.1,45.6,146.2,45.4z M172.9,58.5c-0.1-0.1-1.5-0.9-3.1-0.6C170.8,58.5,171.8,58.7,172.9,58.5z M141.3,56
			c0.6-0.1,6.8-0.3,6.4-2.2C147.4,52.8,141.2,56.1,141.3,56z M156.1,54.3c-1.9,0.8-4.1-1.3-4.9,3.1
			C152.7,56.2,154.3,55.2,156.1,54.3z M148.4,52.5c0,0.2,3.4-8.5-0.8-5.4C147.4,47.2,148.5,52.8,148.4,52.5z M152.9,52.5
			c0.5-2-1.4-1.3-1.4-1.4C152,51.5,152.4,52,152.9,52.5z M150.5,58.2C150.6,58.7,151,58,150.5,58.2z"/>
		<path class="st2" d="M93.9,87c-1.2-0.4-1.6-1.2-1-2.3c-0.4,0.7,5-0.4,4.9-0.4c3,1.4-0.6,4.5-1.7,5c-1.8,0.9-6-1.4-4.5-2
			C92.4,87.4,93.1,87.3,93.9,87z"/>
		<path class="st1" d="M145.9,75c12.5,3.7,5,27.5,16.2,30.4c-4.1,1.8-8.2-3.5-9.5,3.4c-0.5,0.2-3.2-0.2-4.6,0.1
			c-2.5,0.6-5.1,0.4-7.7,0.3c-3.9-0.2-13.5-0.6-15.1-5.5c2.8,0.2,6,4.2,9.2,2.9c0.2-0.1,0.6-2.9,1.9-3.7c0.8-0.5,6.5-5.2,6.3-5.2
			c-0.4-0.6-0.4-1.2,0.2-1.7c1.7-0.1,2.4,0.6,2,2.3c3.1,0.2-1.9,4.5,4.2,2.1c-2.1,0.8,5.4-8.6,4.8-4.5c0.6-4.3-2.4-6.6-6.1-6.9
			C157,85.4,142.3,76.9,145.9,75z"/>
		<path class="st1" d="M108.1,164.7c-0.3-1.9,0.5-3.1,2.5-3.3c-2.7-1.4-2.1-17.1-0.3-18.5c1.9-1.5,9.1,0.5,8.8,4.3
			c-5.5,0.3-8.5,5.1-8.1,10.1c0.1,1.1,3.3,8.2,3.6,8c-0.1-0.1-3.3-2.6-3.8-2.5C109.6,162.9,109.9,164.5,108.1,164.7z"/>
		<path class="st1" d="M160,95.7c-2.7-2-7.5-11.4-7.6-14.9c0.9-0.1,6.3,4.8,6.6,5.2c0.2,0.2-0.2,3.8,0.3,4.6
			c0.8,1.4,2.7-0.7,3.2,0.2c0.2,0.4,1.1,5.5,1.1,6C162.4,96.5,161.2,96.1,160,95.7z"/>
		<path class="st1" d="M128.1,149.6c-1.5-2.1,4.9-5.5,5.1-6.2c1.4-3.9,0-0.7-1.5-4.2c0.1,0.3,2.9-3.9,2.9-3.9
			c1.6,4.8,1.8-0.2,3.9-0.2C138.5,140,133.7,148.9,128.1,149.6z"/>
		<path class="st1" d="M140.4,130.7c-1.1-2.3-1.8-4.7-2-7.2C140,123.2,147.5,132.2,140.4,130.7z"/>
		<path class="st1" d="M143.4,110.3c8.8-0.8,8.8-1.3,6.4,4.8c-1.5-1,2.1-2.8-0.5-3.5C145.3,110.6,146.8,113.6,143.4,110.3z"/>
		<path class="st1" d="M134.4,113.3c-1.9,0.3-1.8-6.2,3.5-3.1C137.8,110.9,135.6,113.1,134.4,113.3z"/>
		<path class="st1" d="M114.9,164.9C124.3,165.7,112.8,167.8,114.9,164.9z"/>
		<path class="st1" d="M127.9,151.4c1.8,0.4,2.3,5.8,0.7,6.8C128.4,156,128.1,153.7,127.9,151.4z"/>
		<path class="st1" d="M119.3,148.4c0.3,1.2,0.1,3.8,0.4,4.8C118.8,151.7,118.7,150.1,119.3,148.4z"/>
		<path class="st1" d="M142.9,131.2c1.8,0.5,3.6,1.2,5.2,2.2C145.3,133.9,144.8,132.3,142.9,131.2z"/>
		<path class="st1" d="M121.1,172.1c-0.6-1-1.5-2-0.3-3.6C121,169.9,121.8,170.9,121.1,172.1z"/>
		<path class="st1" d="M139.1,134.6c-0.2-1.1,0.3-2,0.7-2.9C140.8,132.5,140.7,132.9,139.1,134.6z"/>
		<path class="st1" d="M126.7,150c-0.1,0,0.2,1.9-1.6,1.3C125.5,150.5,126,150.1,126.7,150z"/>
		<path class="st1" d="M139.5,110.3c0.8-0.1,1.6-0.3,2.4-0.1C141.2,111.4,140.3,111.4,139.5,110.3z"/>
		<path class="st1" d="M108.1,167.6c-0.2-0.7-0.4-1.3-0.1-2C109.4,166.2,109.4,166.9,108.1,167.6z"/>
		<path class="st1" d="M157.1,96.8c-0.2-1.1,0-1.7,1.3-1.3C158.3,96.3,157.9,96.7,157.1,96.8z"/>
		<path class="st1" d="M135.5,117.2c-0.7-0.5-0.8-1.2-1-2C136.2,115.3,136.3,116,135.5,117.2z"/>
		<path class="st1" d="M152.9,110.3c0.2-0.4,2.2-1.5,1.7-0.2C154.1,110.5,153.5,110.6,152.9,110.3z"/>
		<path class="st1" d="M135.9,118C135.6,116.5,137.8,118,135.9,118z"/>
		<path class="st1" d="M142.3,123.3C141.7,122.4,143.4,122.9,142.3,123.3z"/>
		<path class="st1" d="M138.7,116.8C138.6,117.4,138.2,116.6,138.7,116.8z"/>
		<path class="st1" d="M154,128.3C153.7,128.8,154,128.3,154,128.3z"/>
		<path class="st1" d="M119.6,168.1C119.2,167.5,119.6,168,119.6,168.1z"/>
		<path class="st1" d="M119.7,168C120.1,168.7,119.5,168,119.7,168z"/>
		<path class="st2" d="M164.6,41.6c1.6-4.3-2.2-3.4,2.9-5.9c3.5-1.7,7.2-0.9,11.1,0.3c-3.6,1.8-3.5,5.8-5.8,8.5
			c-1.4-1.5-1.1-5.6-3.1-7C170.1,39.8,166,42.1,164.6,41.6z"/>
		<path class="st2" d="M133.5,32.7C133.1,33.6,132.5,32.3,133.5,32.7z"/>
		<path class="st1" d="M195.6,82.8c-3.5,1.5-8.2-1.3-11.4-2.3c-2.2-0.7-0.1-2.6-0.2-2.9c-5,4-25.1-8.3-13.6-9.8
			c0.2,4.2-2.6,3.3,0.9,4.5c0.2,0.1,4.1-1.8,4.3-2.2c-1.2,8.5,18.2,3.7,17.7-3.1c4.1,5.2-4.9,5.3-5.7,8.5c-0.6,2.8,1.9,0.4,2.3,1.6
			c1.2,3.5,3.7,5.3,8.7,3.2C198.1,81.6,197.1,82.5,195.6,82.8z"/>
		<path class="st1" d="M179.7,59.4c-1.1-0.3-2-0.1-2.9,0.6c-0.1-0.5,2.2-10.5,1.9-10.3C179.4,52.9,179.7,56.1,179.7,59.4z"/>
		<path class="st1" d="M181.2,60c0.1-2.1,5.7-0.7,6.4,0.9C185.6,60.4,183.3,60.2,181.2,60z"/>
		<path class="st1" d="M173.4,64.8c1.2-0.8,2.3-1.5,3.5-2.3C176.8,67.7,172.4,64.5,173.4,64.8z"/>
		<path class="st1" d="M198.1,85.7c-0.9-0.5-2.1-0.7-2.6-1.8C197,83.5,198.2,83.6,198.1,85.7z"/>
		<path class="st1" d="M180.2,69.2C180.1,70.3,178.6,71.3,180.2,69.2z"/>
		<path class="st1" d="M182.9,67.7C182.8,70.2,180.6,66.6,182.9,67.7z"/>
		<path class="st1" d="M181.1,64.8c-0.8,0.2-1.3,0.1-1.8-0.5C180.2,63.6,180.5,64.4,181.1,64.8z"/>
		<path class="st1" d="M178,62.4C178.5,62.4,178.4,63.3,178,62.4z"/>
		<path class="st1" d="M180.2,69.2C181.6,68.2,180.2,69.5,180.2,69.2z"/>
		<path class="st1" d="M187.5,60.8C188.9,61.5,187.7,60.9,187.5,60.8z"/>
		<path class="st1" d="M119.2,46.1c-0.5,1.3-1.4,1.6-2.4,2.5C117,46.9,117.8,46.5,119.2,46.1z"/>
		<path class="st1" d="M124.6,40.2c-0.5,0.9-1.1,1.4-2.1,1.7C123.2,39.9,123.8,39.4,124.6,40.2z"/>
		<path class="st1" d="M115.2,50.2C115.2,49.9,116.5,48,115.2,50.2z"/>
		<path class="st1" d="M124.3,40C125.5,38.8,124.8,40.5,124.3,40z"/>
		<path class="st1" d="M114.8,50.8C113.5,52,114.8,50.8,114.8,50.8z"/>
		<path class="st1" d="M115.3,50.3C114,51.6,115.3,50.2,115.3,50.3z"/>
		<path class="st1" d="M115.7,49.3C116.4,48.8,115.7,49.4,115.7,49.3z"/>
		<path class="st2" d="M169.5,96.8c-7.1-2.2-4.5-0.9-7-6c0.2,0.4-3.2-1.1-4-2.1c0.1-1.1,0.3-2.2,0.6-3.2c-1.2-0.3-2.4-0.8-3.6-1.3
			c-0.9-1.6-6.9-9.2-5.1-10.5c1.2-0.7,2.2-0.3,2.9,1c0.4-2.9,2.3-0.9,3.6,0.4c2.5,2.2,0,1.8,0.1,4c0.3,0.4,0.5,0.2,0.7-0.6
			c4.7,2.4-1.2,0.9,3-1.6c7.3-4.4,3.4,6.2,3.4,6c0.8,2.8,6.7-5.3,5.9-5c1-0.4,6.9,0.2,7.7,1.6c1.6,3-4.4,1.8-5.1,5.1
			c6.1-8.4,10,4.3,8,6.2c-1,0.3-1.7,0-2.2-0.8c-0.4,0.1,1.5,1.6,1,2.1c-1.7,1.8-1.6-0.2-3.3,0.9C175.1,93.6,170.1,96.2,169.5,96.8z
			 M169.8,86.4c0,0.8-0.1,1.6-0.1,2.5C170.9,88.6,170.9,87.8,169.8,86.4z M167.7,93.4C166.5,94.5,168.2,94.8,167.7,93.4z
			 M164.5,93.8C163.6,93.4,164.1,94.7,164.5,93.8z"/>
		<path class="st1" d="M89.9,166.6C88.6,165.7,90.9,165.4,89.9,166.6z"/>
		<path class="st1" d="M88.1,158.8C88,159,85.5,159.5,88.1,158.8z"/>
		<path class="st1" d="M35.1,54.9C35.2,55.1,35,55.6,35.1,54.9z"/>
		<path class="st1" d="M125.8,102.1c-3.8,2-11.1-5.5-12.4-8.8c-2-4.9-0.8-11.8-1.1-17.2c1.3,1.5,7.9,3.4,4.9,6.6
			c-0.1-1.6-1-2.6-2.5-3.1c-1.7,2.3,3.6,7.4-1,7.1c0.3,1.3,3.3,12.3,6.6,7.2c2.7,9.2,5,0.6,11.3,3.4
			C128.7,97.7,127.9,100.6,125.8,102.1z"/>
		<path class="st1" d="M133.8,64.7c1,0.1,6.7,2.2,6.7,3.9C136.5,69.3,132.9,67.6,133.8,64.7z"/>
		<path class="st1" d="M113.2,75.1c-1.6-1.8-1.8-4-0.6-5.9C113.5,71.1,114.1,73,113.2,75.1z"/>
		<path class="st1" d="M140.5,68.6c2.3,0,3.6,4.5,1.1,5C141.7,73.7,140.5,68.5,140.5,68.6z"/>
		<path class="st1" d="M121.1,61.5c0.6-1.3,2.3,8.2,2.3,8C123.8,66.4,121.2,64.3,121.1,61.5z"/>
		<path class="st1" d="M141.1,74.6c-1.7,2.1-0.9,3.6-4,3.7C137.2,78.1,140,73.7,141.1,74.6z"/>
		<path class="st1" d="M142.6,92.6c-1.6,2.4-3.1,1.2-4.7,0.1C139.5,93,141,92.8,142.6,92.6z"/>
		<path class="st1" d="M136.7,92.2c-1.4,0.6-4.8-2.3-3.2-3.1C135.1,89.6,136.1,90.6,136.7,92.2z"/>
		<path class="st1" d="M132.6,81.1c0.9-1,1.5-1.2,1.8-0.4C134.2,81.5,133,81.6,132.6,81.1z"/>
		<path class="st1" d="M128.8,62.9C131.1,62.6,129.4,65.6,128.8,62.9z"/>
		<path class="st1" d="M137.1,78.4C137,78.9,134.7,80.1,137.1,78.4z"/>
		<path class="st1" d="M132.8,81.4c-0.7,1.1-1.2,1.4-1.7,0.7C131.8,81,132.4,80.8,132.8,81.4z"/>
		<path class="st1" d="M132.2,63.9c0.8-0.2,1.2,0.1,1.6,0.8C133,64.9,132.3,64.9,132.2,63.9z"/>
		<path class="st1" d="M130.2,83.2C130.6,80.6,132.5,83.6,130.2,83.2z"/>
		<path class="st1" d="M132.7,65.8C131.8,65.5,131.9,65.4,132.7,65.8z"/>
		<path class="st1" d="M141.8,95.3C141.6,95.8,141.5,94.8,141.8,95.3z"/>
		<path class="st1" d="M140.8,74.4C142.1,72.1,141.5,74.8,140.8,74.4z"/>
		<path class="st1" d="M147.8,89.1C147.1,89.5,147.8,88.9,147.8,89.1z"/>
		<path class="st1" d="M152.7,68.5c-2.1,1.4-16.1-3.1-17.2-5.6c1.3,0,11.5-1.2,11.8-0.9c0.1,0.9-4.7,3.1-1.8,4.2
			c1.6,0.6,7.1-0.7,8.3,0.7C153.6,67.5,153.2,68,152.7,68.5z"/>
		<path class="st1" d="M175.3,60c0.9,2.6-2.3,3.7-2.4,5.3c-3.9,1.7-7.2,4.1-11.6,4.8c0.6-1.4,1.2-2.8,1.6-4.2
			c2.6,0.4,6.9-3.4,6.8-3.4c0.1,0,0,2.3,0,2.5C170.4,64.4,174.5,56.9,175.3,60z"/>
		<path class="st1" d="M141.3,56c-0.1,0.1,6.1-3.2,6.4-2.2C148.1,55.7,141.9,55.9,141.3,56z"/>
		<path class="st1" d="M159.8,70.2c-2.1,0.4-4,0-5.8-1.1C154.2,67.6,159.7,69.1,159.8,70.2z"/>
		<path class="st1" d="M156.1,54.3c-1.7,0.9-3.4,1.9-4.9,3.1C152,53,154.1,55.1,156.1,54.3z"/>
		<path class="st1" d="M148.4,52.5c0.1,0.3-1-5.3-0.8-5.4C151.8,43.9,148.4,52.7,148.4,52.5z"/>
		<path class="st1" d="M115.7,55.5c0.9-0.6,1.8-0.8,2.9-0.5C118.8,56.8,115.9,57.4,115.7,55.5z"/>
		<path class="st1" d="M172.9,58.5c-1.1,0.1-2.1-0.1-3.1-0.6C172.5,57.4,171.1,58,172.9,58.5z"/>
		<path class="st1" d="M126.9,60.5c-1.4,0.2-2.8,0.5-3.8-1C124.5,59.4,125.8,59.5,126.9,60.5z"/>
		<path class="st1" d="M152.9,52.5c-0.5-0.5-0.9-1-1.4-1.4C151.5,51.2,153.4,50.4,152.9,52.5z"/>
		<path class="st1" d="M131.8,61.3C130.2,61.7,132,57.8,131.8,61.3z"/>
		<path class="st1" d="M129.5,60.5c-0.6,1.2-1.2,1.2-1.7-0.1C128.3,60.5,128.9,60.5,129.5,60.5z"/>
		<path class="st1" d="M148.6,60.4C148.7,59.1,150.6,58.7,148.6,60.4z"/>
		<path class="st1" d="M150.5,58.2C151,58,150.6,58.7,150.5,58.2z"/>
		<path class="st1" d="M147.8,61.5C146.7,62.7,147.3,61,147.8,61.5z"/>
		<path class="st1" d="M148.3,61C147.5,61.9,147.8,61.3,148.3,61z"/>
		<path class="st1" d="M148.1,60.9C149.5,59.5,148.1,61.3,148.1,60.9z"/>
		<path class="st1" d="M132.3,59.6C131.2,60.8,131.8,59.1,132.3,59.6z"/>
		<path class="st1" d="M132.1,59.4C132.7,59.1,132.4,59.7,132.1,59.4z"/>
		<path class="st1" d="M173,58.5C173.3,59,173,58.6,173,58.5z"/>
		<path class="st2" d="M138.5,135.1c-2,0-2.3,5-3.9,0.2c0,0-2.8,4.2-2.9,3.9c0.9,2.1,4.2-0.2,2.9,3.8c0.2-0.7-5.7,3.8-4.5,3.4
			c-4.8,1.7-7.6-1.6-3.9-7.5c-2.3,0.8-7.5,12.3-9.6,1.7c-0.2-0.8,1.7-6.2,2.3-7.3c-0.9-1.4-0.8-2.7,0.1-3.8c0.4-1.3,1.4-1.8,3-1.5
			c-0.1,0.2,1.3,1.5,2.1,0.6c-4.1-1.5-2.2-7-4.4-8.7c-0.3,0.5-0.8,1-1.2,1.4c-3.6-0.7-1.8-9.8-2.6-12.9c0.8,0.1,1.7,0,2.5-0.2
			c-0.6-1-0.7-2.1-0.1-3.2c0,0,4.9,3.1,4.9,3.1c2.7,5-1.5,4.4-1.6,7.3c-0.4,8.4,1.8,2.1,5.3,2.1c0.2-3.6,2.6-5.1,2.8-2
			c0.3,0.4,0.5,0.2,0.7-0.6c0.8,0.2,3.6,5.6,4.2,5.6c5.6-0.2-2.4,10.6-3.5,9C133,132.1,138.9,127.2,138.5,135.1z M130.7,135.9
			c-0.5,1.2-0.7,1.8-1,2.8C131,138.1,130.7,137.3,130.7,135.9z M124,122.6C122.7,121.7,123.2,124,124,122.6z M120.3,108.2
			C119.4,107.7,119.4,108.6,120.3,108.2z"/>
		<path class="st1" d="M134.9,119.4c-2.8-0.9-7.6-10.7-8.1-2.1c-3.6,0-5.6,6.2-5.3-2.1c0.1-3.4,4.7-1.5,1.6-7.3c0,0-5-3-4.9-3.1
			c-0.5,1.1-0.5,2.2,0.1,3.2c-0.8,0.2-1.6,0.3-2.5,0.2c0.8,3.2-0.8,12.2,2.6,12.9c0.5-0.4,0.9-0.9,1.2-1.4c-0.8-0.6,2.2,6.7,2.2,6
			c0.2,4.1-2.2,0.3-3,3.7c-0.8,3.8-0.7,9.5-1.8,12.6c-10.9,4.5-3.6-45.2-3.8-45.2c3,0,7.9,7.3,10.1,9.1
			C128.8,110.3,132.3,112.4,134.9,119.4z M114,123.8C114,123.6,114,123.6,114,123.8z"/>
		<path class="st1" d="M138.6,133.1c-2.8-1.3-0.1-2.4-1.9-3.9c-1.9-1.6-4.8,1.4-5.7,0.1C130.2,128.3,144.7,120.3,138.6,133.1z"/>
		<path class="st1" d="M121.5,145.3c0,0,4.1-6.2,4.7-6.4C125.2,140.3,125.6,148.8,121.5,145.3z"/>
		<path class="st1" d="M135.8,125.4c-0.7-1.3-1.9-2.6-0.1-3.9C136.6,122.8,137.2,124.1,135.8,125.4z"/>
		<path class="st1" d="M124.8,146.3c1.1,0.6,3-1,3.6,1.2C127,147.8,125.8,147.5,124.8,146.3z"/>
		<path class="st1" d="M119.1,144.4c0.7-0.9,0.9-0.4,1,0.3C119.7,144.9,119.3,144.8,119.1,144.4z"/>
		<path class="st1" d="M134.9,120.3C134,120.3,134.8,120.3,134.9,120.3z"/>
		<path class="st1" d="M175.4,77.8c-2.1,1.8-4.5-0.9-5.9-0.3c-2.2,0.9,0.2,3.9-2.3,4.8c-0.6-3.4-1.6,4.6-2.8,0.4
			c0.1,0.2,3.9-10.3-3.4-6c-4,2.4,1.3,3.8-3,1.6c0.8-2.9-4.1-6.8-4.5-3.7c-0.7-1.3-1.6-1.6-2.9-1c-2.3,1.7,4.7,4.4,1.8,6.9
			C135.3,63.6,171,76.7,175.4,77.8z"/>
		<path class="st1" d="M180.7,86.1c-1.9-0.5-1.5-3.8-3.5-4.9C179.8,76.6,180.7,85.3,180.7,86.1z"/>
		<path class="st1" d="M178.4,79.7c-0.8,0.2-1.1-0.1-1.1-0.9C177.9,78.8,178.3,79.1,178.4,79.7z"/>
		<path class="st1" d="M181.1,89.1C180.1,88.5,181.2,87.4,181.1,89.1z"/>
		<path class="st1" d="M148.1,71.3C146.7,70.8,148.7,70.5,148.1,71.3z"/>
		<path class="st1" d="M177.3,81.3c-1.4,1.2-2.9,2.2-4.6,3C173.3,81.9,175.8,82,177.3,81.3z"/>
		<path class="st1" d="M169.8,86.4c1.1,1.4,1.1,2.2-0.1,2.5C169.7,88,169.7,87.2,169.8,86.4z"/>
		<path class="st1" d="M167.7,93.4C168.2,94.8,166.5,94.5,167.7,93.4z"/>
		<path class="st1" d="M179.2,90.5C178.1,90,178.3,89.7,179.2,90.5z"/>
		<path class="st1" d="M157.9,78.4C157.9,78.6,156.2,80,157.9,78.4z"/>
		<path class="st1" d="M164.5,93.8C164.1,94.7,163.6,93.4,164.5,93.8z"/>
		<path class="st1" d="M130.7,135.9c0.1,1.4,0.3,2.2-1,2.8C130,137.7,130.2,137.1,130.7,135.9z"/>
		<path class="st1" d="M124,122.6C123.2,124,122.7,121.7,124,122.6z"/>
		<path class="st1" d="M123.1,128.2C125.8,129.2,121.9,129.6,123.1,128.2z"/>
		<path class="st1" d="M130.3,114.7C130.2,114.9,128.6,116.4,130.3,114.7z"/>
		<path class="st1" d="M120.3,108.2C119.4,108.6,119.4,107.7,120.3,108.2z"/>
		<path class="st1" d="M122.1,127.7C124.5,128.9,121.7,128.2,122.1,127.7z"/>
		<path class="st2" d="M167.1,82.2C167,82.2,166.3,79.6,167.1,82.2z"/>
	</g>
</g>
</svg>
